<!--?xml version="1.0" standalone="no"?-->
              <svg id="sw-js-blob-svg" viewBox="0 0 100 100" xmlns="http://www.w3.org/2000/svg" version="1.1">
                    <defs> 
                        <linearGradient id="sw-gradient" x1="0" x2="1" y1="1" y2="0">
                            <stop id="stop1" stop-color="rgba(125, 204, 219, 1)" offset="0%"></stop>
                            <stop id="stop2" stop-color="rgba(251, 168, 31, 1)" offset="100%"></stop>
                        </linearGradient>
                    </defs>
                <path fill="rgba(125, 204, 219, 1)" d="M19.4,-30.6C20.3,-22.4,12.8,-11.7,12.1,-3.9C11.4,3.9,17.5,8.8,18,12.7C18.5,16.6,13.3,19.5,6.9,24.1C0.5,28.6,-7.2,34.8,-9.7,31.7C-12.2,28.6,-9.4,16.2,-10.3,8.8C-11.1,1.4,-15.5,-1,-15.6,-3.2C-15.8,-5.3,-11.7,-7.2,-8.4,-14.9C-5,-22.7,-2.5,-36.3,3.4,-40.3C9.3,-44.4,18.5,-38.7,19.4,-30.6Z" width="100%" height="100%" transform="translate(50 50)" stroke-width="0" style="transition: 0.3s;" stroke="rgba(125, 204, 219, 1)"></path>
              </svg>